<?xml version="1.0" encoding="UTF-8" standalone="no"?>
<!DOCTYPE svg PUBLIC "-//W3C//DTD SVG 1.1//EN"
 "http://www.w3.org/Graphics/SVG/1.1/DTD/svg11.dtd">
<!-- Generated by graphviz version 2.40.1 (20161225.0304)
 -->
<!-- Title: layers Pages: 1 -->
<svg width="621pt" height="220pt"
 viewBox="0.00 0.00 620.50 220.00" xmlns="http://www.w3.org/2000/svg" xmlns:xlink="http://www.w3.org/1999/xlink">
<g id="graph0" class="graph" transform="scale(1 1) rotate(0) translate(4 216)">
<title>layers</title>
<polygon fill="#ffffff" stroke="transparent" points="-4,4 -4,-216 616.5,-216 616.5,4 -4,4"/>
<!-- ui -->
<g id="node1" class="node">
<title>ui</title>
<polygon fill="#adff2f" stroke="#d3d3d3" points="457.5,-212 169.5,-212 169.5,-176 457.5,-176 457.5,-212"/>
<text text-anchor="middle" x="313.5" y="-189.8" font-family="Arial" font-size="14.00" fill="#000000">UI (console and web)</text>
</g>
<!-- commands -->
<g id="node2" class="node">
<title>commands</title>
<polygon fill="#adff2f" stroke="#d3d3d3" points="457.5,-168 169.5,-168 169.5,-132 457.5,-132 457.5,-168"/>
<text text-anchor="middle" x="313.5" y="-145.8" font-family="Arial" font-size="14.00" fill="#000000">Commands</text>
</g>
<!-- ui&#45;&#45;commands -->
<!-- membrane -->
<g id="node3" class="node">
<title>membrane</title>
<polygon fill="#add8e6" stroke="#d3d3d3" points="317,-124 0,-124 0,-88 317,-88 317,-124"/>
<text text-anchor="middle" x="158.5" y="-101.8" font-family="Arial" font-size="14.00" fill="#000000">Apache Membrane</text>
</g>
<!-- commands&#45;&#45;membrane -->
<!-- domain -->
<g id="node9" class="node">
<title>domain</title>
<polygon fill="#d8bfd8" stroke="#d3d3d3" points="612.5,-124 324.5,-124 324.5,-88 612.5,-88 612.5,-124"/>
<text text-anchor="middle" x="468.5" y="-101.8" font-family="Arial" font-size="14.00" fill="#000000">Domain</text>
</g>
<!-- commands&#45;&#45;domain -->
<!-- metamodel -->
<g id="node4" class="node">
<title>metamodel</title>
<polygon fill="#add8e6" stroke="#d3d3d3" points="317,-80 0,-80 0,-44 317,-44 317,-80"/>
<text text-anchor="middle" x="158.5" y="-57.8" font-family="Arial" font-size="14.00" fill="#000000">Apache MetaModel</text>
</g>
<!-- membrane&#45;&#45;metamodel -->
<!-- neo4j -->
<g id="node5" class="node">
<title>neo4j</title>
<polygon fill="#e6e6fa" stroke="#d3d3d3" points="73.5,-36 1.5,-36 1.5,0 73.5,0 73.5,-36"/>
<text text-anchor="middle" x="37.5" y="-13.8" font-family="Arial" font-size="14.00" fill="#000000">Neo4j</text>
</g>
<!-- metamodel&#45;&#45;neo4j -->
<!-- bookmarks -->
<g id="node6" class="node">
<title>bookmarks</title>
<polygon fill="#e6e6fa" stroke="#d3d3d3" points="152.5,-36 80.5,-36 80.5,0 152.5,0 152.5,-36"/>
<text text-anchor="middle" x="116.5" y="-13.8" font-family="Arial" font-size="14.00" fill="#000000">Chrome</text>
</g>
<!-- metamodel&#45;&#45;bookmarks -->
<!-- filesys -->
<g id="node7" class="node">
<title>filesys</title>
<polygon fill="#e6e6fa" stroke="#d3d3d3" points="241.8823,-36 159.1177,-36 159.1177,0 241.8823,0 241.8823,-36"/>
<text text-anchor="middle" x="200.5" y="-13.8" font-family="Arial" font-size="14.00" fill="#000000">Filesystem</text>
</g>
<!-- metamodel&#45;&#45;filesys -->
<!-- etc -->
<g id="node8" class="node">
<title>etc</title>
<polygon fill="#e6e6fa" stroke="#d3d3d3" points="320.5,-36 248.5,-36 248.5,0 320.5,0 320.5,-36"/>
<text text-anchor="middle" x="284.5" y="-13.8" font-family="Arial" font-size="14.00" fill="#000000">etc</text>
</g>
<!-- metamodel&#45;&#45;etc -->
<!-- language -->
<g id="node10" class="node">
<title>language</title>
<polygon fill="#d8bfd8" stroke="#d3d3d3" points="612.5,-80 324.5,-80 324.5,-44 612.5,-44 612.5,-80"/>
<text text-anchor="middle" x="468.5" y="-57.8" font-family="Arial" font-size="14.00" fill="#000000">JavaScript</text>
</g>
<!-- domain&#45;&#45;language -->
</g>
</svg>
