<?xml version="1.0" encoding="UTF-8" standalone="no"?>
<!DOCTYPE svg PUBLIC "-//W3C//DTD SVG 1.1//EN"
 "http://www.w3.org/Graphics/SVG/1.1/DTD/svg11.dtd">
<!-- Generated by graphviz version 2.40.1 (20161225.0304)
 -->
<!-- Title: layers Pages: 1 -->
<svg width="627pt" height="176pt"
 viewBox="0.00 0.00 627.00 176.00" xmlns="http://www.w3.org/2000/svg" xmlns:xlink="http://www.w3.org/1999/xlink">
<g id="graph0" class="graph" transform="scale(1 1) rotate(0) translate(4 172)">
<title>layers</title>
<polygon fill="#ffffff" stroke="transparent" points="-4,4 -4,-172 623,-172 623,4 -4,4"/>
<!-- ui -->
<g id="node1" class="node">
<title>ui</title>
<polygon fill="#adff2f" stroke="#d3d3d3" points="498,-168 138,-168 138,-132 498,-132 498,-168"/>
<text text-anchor="middle" x="318" y="-145.8" font-family="Arial" font-size="14.00" fill="#000000">UI</text>
</g>
<!-- membrane -->
<g id="node2" class="node">
<title>membrane</title>
<polygon fill="#add8e6" stroke="#d3d3d3" points="324,-124 0,-124 0,-88 324,-88 324,-124"/>
<text text-anchor="middle" x="162" y="-101.8" font-family="Arial" font-size="14.00" fill="#000000">Apache Membrane</text>
</g>
<!-- ui&#45;&#45;membrane -->
<!-- commands -->
<g id="node8" class="node">
<title>commands</title>
<polygon fill="#faebd7" stroke="#d3d3d3" points="619,-124 331,-124 331,-88 619,-88 619,-124"/>
<text text-anchor="middle" x="475" y="-101.8" font-family="Arial" font-size="14.00" fill="#000000">Commands</text>
</g>
<!-- ui&#45;&#45;commands -->
<!-- metamodel -->
<g id="node3" class="node">
<title>metamodel</title>
<polygon fill="#add8e6" stroke="#d3d3d3" points="324,-80 0,-80 0,-44 324,-44 324,-80"/>
<text text-anchor="middle" x="162" y="-57.8" font-family="Arial" font-size="14.00" fill="#000000">Apache MetaModel</text>
</g>
<!-- membrane&#45;&#45;metamodel -->
<!-- neo4j -->
<g id="node4" class="node">
<title>neo4j</title>
<polygon fill="#e6e6fa" stroke="#d3d3d3" points="77,-36 5,-36 5,0 77,0 77,-36"/>
<text text-anchor="middle" x="41" y="-13.8" font-family="Arial" font-size="14.00" fill="#000000">Neo4j</text>
</g>
<!-- metamodel&#45;&#45;neo4j -->
<!-- bookmarks -->
<g id="node5" class="node">
<title>bookmarks</title>
<polygon fill="#e6e6fa" stroke="#d3d3d3" points="156,-36 84,-36 84,0 156,0 156,-36"/>
<text text-anchor="middle" x="120" y="-13.8" font-family="Arial" font-size="14.00" fill="#000000">Chrome</text>
</g>
<!-- metamodel&#45;&#45;bookmarks -->
<!-- filesys -->
<g id="node6" class="node">
<title>filesys</title>
<polygon fill="#e6e6fa" stroke="#d3d3d3" points="245.3823,-36 162.6177,-36 162.6177,0 245.3823,0 245.3823,-36"/>
<text text-anchor="middle" x="204" y="-13.8" font-family="Arial" font-size="14.00" fill="#000000">Filesystem</text>
</g>
<!-- metamodel&#45;&#45;filesys -->
<!-- etc -->
<g id="node7" class="node">
<title>etc</title>
<polygon fill="#e6e6fa" stroke="#d3d3d3" points="324,-36 252,-36 252,0 324,0 324,-36"/>
<text text-anchor="middle" x="288" y="-13.8" font-family="Arial" font-size="14.00" fill="#000000">etc</text>
</g>
<!-- metamodel&#45;&#45;etc -->
<!-- language -->
<g id="node9" class="node">
<title>language</title>
<polygon fill="#d8bfd8" stroke="#d3d3d3" points="619,-80 331,-80 331,-44 619,-44 619,-80"/>
<text text-anchor="middle" x="475" y="-57.8" font-family="Arial" font-size="14.00" fill="#000000">JavaScript</text>
</g>
<!-- commands&#45;&#45;language -->
</g>
</svg>
