<?xml version="1.0" encoding="UTF-8" standalone="no"?>
<!DOCTYPE svg PUBLIC "-//W3C//DTD SVG 1.1//EN"
 "http://www.w3.org/Graphics/SVG/1.1/DTD/svg11.dtd">
<!-- Generated by graphviz version 2.40.1 (20161225.0304)
 -->
<!-- Title: layers Pages: 1 -->
<svg width="461pt" height="308pt"
 viewBox="0.00 0.00 461.00 308.00" xmlns="http://www.w3.org/2000/svg" xmlns:xlink="http://www.w3.org/1999/xlink">
<g id="graph0" class="graph" transform="scale(1 1) rotate(0) translate(4 304)">
<title>layers</title>
<polygon fill="#ffffff" stroke="transparent" points="-4,4 -4,-304 457,-304 457,4 -4,4"/>
<!-- consoleui -->
<g id="node1" class="node">
<title>consoleui</title>
<polygon fill="#adff2f" stroke="#d3d3d3" points="223,-300 7,-300 7,-264 223,-264 223,-300"/>
<text text-anchor="middle" x="115" y="-277.8" font-family="Arial" font-size="14.00" fill="#000000">ConsoleUI</text>
</g>
<!-- commands -->
<g id="node3" class="node">
<title>commands</title>
<polygon fill="#add8e6" stroke="#d3d3d3" points="442,-256 10,-256 10,-220 442,-220 442,-256"/>
<text text-anchor="middle" x="226" y="-233.8" font-family="Arial" font-size="14.00" fill="#000000">Commands</text>
</g>
<!-- consoleui&#45;&#45;commands -->
<g id="edge1" class="edge">
<title>consoleui&#45;&#45;commands</title>
<path fill="none" stroke="#ffffff" d="M160.4682,-263.9766C167.0541,-261.366 173.8349,-258.6781 180.4229,-256.0666"/>
</g>
<!-- webui -->
<g id="node2" class="node">
<title>webui</title>
<polygon fill="#adff2f" stroke="#d3d3d3" points="446,-300 230,-300 230,-264 446,-264 446,-300"/>
<text text-anchor="middle" x="338" y="-277.8" font-family="Arial" font-size="14.00" fill="#000000">WebUI</text>
</g>
<!-- webui&#45;&#45;commands -->
<g id="edge2" class="edge">
<title>webui&#45;&#45;commands</title>
<path fill="none" stroke="#ffffff" d="M292.1222,-263.9766C285.477,-261.366 278.6351,-258.6781 271.9877,-256.0666"/>
</g>
<!-- cache -->
<g id="node4" class="node">
<title>cache</title>
<polygon fill="#add8e6" stroke="#d3d3d3" points="442,-212 10,-212 10,-176 442,-176 442,-212"/>
<text text-anchor="middle" x="226" y="-189.8" font-family="Arial" font-size="14.00" fill="#000000">Cache</text>
</g>
<!-- commands&#45;&#45;cache -->
<g id="edge3" class="edge">
<title>commands&#45;&#45;cache</title>
<path fill="none" stroke="#ffffff" d="M226,-219.8495C226,-217.2929 226,-214.6646 226,-212.1088"/>
</g>
<!-- sql -->
<g id="node5" class="node">
<title>sql</title>
<polygon fill="#add8e6" stroke="#d3d3d3" points="442,-168 10,-168 10,-132 442,-132 442,-168"/>
<text text-anchor="middle" x="226" y="-145.8" font-family="Arial" font-size="14.00" fill="#000000">?</text>
</g>
<!-- cache&#45;&#45;sql -->
<g id="edge4" class="edge">
<title>cache&#45;&#45;sql</title>
<path fill="none" stroke="#ffffff" d="M226,-175.8495C226,-173.2929 226,-170.6646 226,-168.1088"/>
</g>
<!-- membrane -->
<g id="node6" class="node">
<title>membrane</title>
<polygon fill="#add8e6" stroke="#d3d3d3" points="442,-124 10,-124 10,-88 442,-88 442,-124"/>
<text text-anchor="middle" x="226" y="-101.8" font-family="Arial" font-size="14.00" fill="#000000">Apache Membrane</text>
</g>
<!-- sql&#45;&#45;membrane -->
<g id="edge5" class="edge">
<title>sql&#45;&#45;membrane</title>
<path fill="none" stroke="#ffffff" d="M226,-131.8495C226,-129.2929 226,-126.6646 226,-124.1088"/>
</g>
<!-- metamodel -->
<g id="node7" class="node">
<title>metamodel</title>
<polygon fill="#add8e6" stroke="#d3d3d3" points="442,-80 10,-80 10,-44 442,-44 442,-80"/>
<text text-anchor="middle" x="226" y="-57.8" font-family="Arial" font-size="14.00" fill="#000000">Apache MetaModel</text>
</g>
<!-- membrane&#45;&#45;metamodel -->
<g id="edge6" class="edge">
<title>membrane&#45;&#45;metamodel</title>
<path fill="none" stroke="#ffffff" d="M226,-87.8495C226,-85.2929 226,-82.6646 226,-80.1088"/>
</g>
<!-- neo4j -->
<g id="node8" class="node">
<title>neo4j</title>
<polygon fill="#e6e6fa" stroke="#d3d3d3" points="108,-36 0,-36 0,0 108,0 108,-36"/>
<text text-anchor="middle" x="54" y="-13.8" font-family="Arial" font-size="14.00" fill="#000000">Neo4j</text>
</g>
<!-- metamodel&#45;&#45;neo4j -->
<g id="edge7" class="edge">
<title>metamodel&#45;&#45;neo4j</title>
<path fill="none" stroke="#ffffff" d="M143.3123,-43.9283C132.7437,-41.3877 122.0961,-38.7137 112,-36 110.7782,-35.6716 109.5435,-35.3344 108.2997,-34.99"/>
</g>
<!-- bookmarks -->
<g id="node9" class="node">
<title>bookmarks</title>
<polygon fill="#e6e6fa" stroke="#d3d3d3" points="223,-36 115,-36 115,0 223,0 223,-36"/>
<text text-anchor="middle" x="169" y="-13.8" font-family="Arial" font-size="14.00" fill="#000000">Chrome</text>
</g>
<!-- metamodel&#45;&#45;bookmarks -->
<g id="edge8" class="edge">
<title>metamodel&#45;&#45;bookmarks</title>
<path fill="none" stroke="#ffffff" d="M202.4868,-43.8495C199.1748,-41.2929 195.7701,-38.6646 192.4591,-36.1088"/>
</g>
<!-- filesys -->
<g id="node10" class="node">
<title>filesys</title>
<polygon fill="#e6e6fa" stroke="#d3d3d3" points="338,-36 230,-36 230,0 338,0 338,-36"/>
<text text-anchor="middle" x="284" y="-13.8" font-family="Arial" font-size="14.00" fill="#000000">Filesystem</text>
</g>
<!-- metamodel&#45;&#45;filesys -->
<g id="edge9" class="edge">
<title>metamodel&#45;&#45;filesys</title>
<path fill="none" stroke="#ffffff" d="M249.9257,-43.8495C253.2958,-41.2929 256.7602,-38.6646 260.1293,-36.1088"/>
</g>
<!-- etc -->
<g id="node11" class="node">
<title>etc</title>
<polygon fill="#e6e6fa" stroke="#d3d3d3" points="453,-36 345,-36 345,0 453,0 453,-36"/>
<text text-anchor="middle" x="399" y="-13.8" font-family="Arial" font-size="14.00" fill="#000000">etc</text>
</g>
<!-- metamodel&#45;&#45;etc -->
<g id="edge10" class="edge">
<title>metamodel&#45;&#45;etc</title>
<path fill="none" stroke="#ffffff" d="M309.4164,-43.9532C320.0772,-41.4085 330.8171,-38.7267 341,-36 342.2221,-35.6727 343.4571,-35.3366 344.7011,-34.9932"/>
</g>
</g>
</svg>
